<?xml version="1.0" encoding="utf-8"?>
<svg version="1.1" id="Layer_1" xmlns="http://www.w3.org/2000/svg" xmlns:xlink="http://www.w3.org/1999/xlink" x="0px" y="0px"
	 viewBox="0 0 1307.1 563.2" style="enable-background:new 0 0 1307.1 563.2;" xml:space="preserve">
<style type="text/css">
	.st0{opacity:0.9;fill:#00349B;}
	.st1{fill:#E3E4E2;}
	.st2{opacity:0.9;}
	.st3{fill:none;}
	.st4{fill:#1097CD;}
	.st5{fill:#00349B;}
	.st6{opacity:0.9;fill:#1097CD;}
	.st7{opacity:0.9;fill:#0068B5;}
	.st8{fill:#00C7FD;}
	.st9{fill:#0068B5;}
	.st10{opacity:0.9;fill:#00C7FD;}
	.st11{fill:#FFFFFF;}
</style>
<rect x="-456.8" y="-387.6" class="st3" width="4578.8" height="3126.4"/>
<rect x="-456.8" y="-387.6" class="st3" width="4578.8" height="3126.4"/>
<rect x="-456.8" y="-387.6" class="st3" width="4578.8" height="3126.4"/>
<g>
	<g>
		<path class="st9" d="M39,496.8v-22.8h21.3c15,0,30.8-4,31-17.7c0-8.4-6.7-19.6-30.3-19.6c-13.1,0-30.8,4.6-30.8,18.1H2.3
			c0-31.8,31.6-43.4,58.8-43.4c27.8,0,57.7,13.5,57.9,44.9c0,11.6-7.6,25.1-20.4,29.1c14.1,4.6,24,18.5,24,31
			c0,36-33.9,46.8-62.4,46.8c-28,0-60-11.8-60.2-45.3h28c0,15.2,20.4,20.4,32.4,20.4c14.1,0,32.9-5.9,32.9-21.7
			c0-8.9-4.8-19.8-31.4-19.8H39z"/>
		<path class="st9" d="M273.6,454.3l-48,64h-5.5l-47-64.3v107.2h-27.8V413.8h32l46.1,63.4l46.1-63.4h31.8v147.5h-27.8V454.3z"/>
		<path class="st9" d="M456.7,486.1c0.6,37.3-22.1,75-73.7,75c-18.1,0-39.8,0-57.9,0V413.6c18.1,0,39.8,0,57.9,0
			C433.5,413.6,456,449.6,456.7,486.1z M352.6,534.3h30.3c33.5,0,46.8-24.4,46.1-48.5c-0.6-23-14.1-45.9-46.1-45.9h-30.3V534.3z"/>
		<path class="st8" d="M602.8,413.6l-60.7,147.9h-12.2l-60.7-147.9h12.2L536,548.4l54.6-134.8H602.8z"/>
		<path class="st8" d="M590.5,509c0-31.2,23.6-53.7,52.9-53.7c29.3,0,55.4,17.9,51.4,58.6h-93.7c2.1,24.4,20.9,38.6,42.3,38.6
			c13.7,0,29.7-5.5,37.5-15.8l7.4,5.9c-10.1,13.3-28.2,20-44.9,20C614.1,562.5,590.5,542.1,590.5,509z M685.6,504.8
			c-0.2-25.7-17.1-40-42.1-40c-21.5,0-40,14.5-42.3,40H685.6z"/>
		<path class="st8" d="M727.5,457v18.5c8-14.3,22.5-20.2,37.1-20.4c27.8,0,47,17.1,47,45.9v60h-10.3v-59.8c0-23.6-14.5-36.2-37.1-36
			c-21.5,0.2-36.4,16.4-36.4,37.9v57.9h-10.3V457H727.5z"/>
		<path class="st8" d="M853.7,425.6V457h35.4v8.6h-35.4V529c0,14.1,2.9,24,19.2,24c5.1,0,10.7-1.7,16-4.2l3.6,8.4
			c-6.5,3.2-13.1,5.3-19.6,5.3c-22.1,0-29.3-13.1-29.3-33.5v-63.4h-22.1V457h22.1v-30.3L853.7,425.6z"/>
		<path class="st8" d="M992.5,561.1v-18.7c-8,14.3-22.5,20.2-37.1,20.4c-27.8,0-47-17.1-47-45.9v-60h10.3v59.8
			c0,23.6,14.5,36.2,37.1,36c21.5-0.2,36.4-16.4,36.4-37.9v-57.9h10.3v104.3H992.5z"/>
		<path class="st8" d="M1035.3,457l0.4,18.5c6.5-14.1,21.3-19.6,34.6-19.6c7.8-0.2,15.4,1.9,22.3,6.1l-4.6,8.4
			c-5.5-3.4-11.6-4.8-17.7-4.8c-19.4,0.2-34.3,15.8-34.3,34.8v60.7h-10.3V457H1035.3z"/>
		<path class="st8" d="M1098.1,509c0-31.2,23.6-53.7,52.9-53.7c29.3,0,55.4,17.9,51.4,58.6h-93.7c2.1,24.4,20.9,38.6,42.3,38.6
			c13.7,0,29.7-5.5,37.5-15.8l7.4,5.9c-10.1,13.3-28.2,20-44.9,20C1121.7,562.5,1098.1,542.1,1098.1,509z M1193.1,504.8
			c-0.2-25.7-17.1-40-42.1-40c-21.5,0-40,14.5-42.3,40H1193.1z"/>
		<path class="st8" d="M1296.3,476c-10.5-9.3-20.9-11-32.4-11c-16.2-0.2-31.8,5.9-31.4,19.2c0.4,13.9,18.5,16.6,31.6,19
			c18.5,3.2,44,6.3,43,30.5c-0.6,23-24.4,29.1-42.8,29.1c-18.3,0-36.4-7-45.5-20.9l7.6-6.7c8.6,12.4,24.2,17.7,38.1,17.7
			c12.6,0,31.8-3.4,32.4-19.8c0.4-15-16.9-17.9-33.9-20.6c-20.2-3.4-40.2-7.2-40.4-28c-0.2-20.4,20.2-29.3,41.3-29.1
			c15.2,0,28.4,4.2,38.8,13.9L1296.3,476z"/>
	</g>
	<g>
		<path class="st3" d="M698.4,244.2c-7.3-12.7-11.9-26.1-14.7-39.9H655v39.9h0.4H698.4z"/>
		<path class="st3" d="M727,299.1c1.4-17.2-4.7-31.5-16.1-43.6c-0.3,0-0.5,0-0.8,0h-54.8H655v43.6h0.4H727z"/>
		<path class="st3" d="M644.3,86.8h-17.7V69.6h-21.8c0.4,13.2,8.3,24.9,20.3,32.3H625v13.9h30V69.6h-10.7V86.8z"/>
		<path class="st8" d="M685,115.9V102h-0.1c12-7.4,19.8-19.1,20.3-32.3h-21.8v17.2h-17.7V69.6H655v46.2H685z"/>
		<path class="st8" d="M683.7,204.4c-2.7-13.7-3.5-39.2-3.3-53.7h-25H655v53.6h-28.7c-2.7,13.8-7.3,27.2-14.7,39.9h43h0.4v-39.9
			H683.7z"/>
		<path class="st8" d="M654.6,255.5h-54.8c-0.3,0-0.5,0-0.8,0c-11.4,12.1-17.4,26.4-16.1,43.6h71.6h0.4v-43.6H654.6z"/>
		<polygon class="st8" points="654.6,310.3 583.1,310.3 583.1,339.1 654.6,339.1 655,339.1 655,310.3 		"/>
		<path class="st8" d="M688.1,150.9c9.6,0,17.6-10.3,19.1-23.8H655v23.8H688.1z"/>
		<g>
			<g>
				<g>
					<path class="st9" d="M644.3,86.8V69.6H655V0L450.6,204.3h175.6c2.7-13.6,3.5-39,3.3-53.4h-7.7c-9.6,0-17.6-10.3-19.1-23.8H655
						v-11.3h-30V102h0.1c-12-7.4-19.8-19.1-20.3-32.3h21.8v17.2H644.3z"/>
				</g>
			</g>
		</g>
		<path class="st9" d="M726.9,310.3V334l129.6-129.6H683.7c2.7,13.8,7.3,27.1,14.7,39.9h-43H655v11.2h0.4h54.8c0.3,0,0.5,0,0.8,0
			c11.4,12.1,17.4,26.4,16.1,43.6h-71.6H655v11.2h0.4H726.9z"/>
		<polygon class="st9" points="655,339.1 655,408.7 721.7,339.1 655.4,339.1 		"/>
	</g>
</g>
</svg>
